simulation
nRows=61
nColumns=15
endheader
time  TH_x TH_y TH_z SC_y  SC_z  SC_x  AC_y  AC_z  AC_x  GH_y  GH_z  GH_yy  EL_x  PS_y
0.249980  0.000000  0.000000  0.000000  -56.573375  4.617817  15.000000  43.527156  -15.078916  -15.258336  -31.906964  7.592495  12.388273  19.188546  129.095123
0.250061  0.000000  0.000000  0.000000  -56.573375  4.617817  20.000000  42.423073  -18.488632  -19.078855  -31.906964  7.592495  12.388273  19.188546  129.095123
0.250141  0.000000  0.000000  0.000000  -56.573375  4.617817  25.000000  41.052864  -21.818673  -23.052715  -31.906964  7.592495  12.388273  19.188546  129.095123
0.250222  0.000000  0.000000  0.000000  -56.573375  4.617817  30.000000  39.397060  -25.049157  -27.213065  -31.906964  7.592495  12.388273  19.188546  129.095123
0.250303  0.000000  0.000000  0.000000  -56.573375  4.617817  35.000000  37.433618  -28.157614  -31.594259  -31.906964  7.592495  12.388273  19.188546  129.095123
0.250383  0.000000  0.000000  0.000000  -56.573375  4.617817  40.000000  35.138906  -31.118529  -36.231084  -31.906964  7.592495  12.388273  19.188546  129.095123
0.250464  0.000000  0.000000  0.000000  -56.573375  4.617817  45.000000  32.489352  -33.902995  -41.157260  -31.906964  7.592495  12.388273  19.188546  129.095123
0.250545  0.000000  0.000000  0.000000  -56.573375  4.617817  50.000000  29.464056  -36.478538  -46.403002  -31.906964  7.592495  12.388273  19.188546  129.095123
0.250626  0.000000  0.000000  0.000000  -54.564274  4.807874  -20.000000  36.269486  14.200948  17.029310  40.135420  11.769570  -47.500896  16.250721  126.300253
0.250706  0.000000  0.000000  0.000000  -54.564274  4.807874  -15.000000  37.173659  11.209994  12.921377  40.135420  11.769570  -47.500896  16.250721  126.300253
0.250787  0.000000  0.000000  0.000000  -54.564274  4.807874  -10.000000  37.851100  8.164056  8.898351  40.135420  11.769570  -47.500896  16.250721  126.300253
0.250868  0.000000  0.000000  0.000000  -54.564274  4.807874  -5.000000  38.308282  5.079039  4.936622  40.135420  11.769570  -47.500896  16.250721  126.300253
0.250948  0.000000  0.000000  0.000000  -54.564274  4.807874  0.000000  38.549689  1.970101  1.012781  40.135420  11.769570  -47.500896  16.250721  126.300253
0.251029  0.000000  0.000000  0.000000  -54.564274  4.807874  5.000000  38.577754  -1.148032  -2.896413  40.135420  11.769570  -47.500896  16.250721  126.300253
0.251110  0.000000  0.000000  0.000000  -54.564274  4.807874  10.000000  38.392749  -4.260820  -6.814143  40.135420  11.769570  -47.500896  16.250721  126.300253
0.251191  0.000000  0.000000  0.000000  -54.564274  4.807874  15.000000  37.992853  -7.353589  -10.763613  40.135420  11.769570  -47.500896  16.250721  126.300253
0.251271  0.000000  0.000000  0.000000  -54.564274  4.807874  20.000000  37.374041  -10.411344  -14.768188  40.135420  11.769570  -47.500896  16.250721  126.300253
0.251352  0.000000  0.000000  0.000000  -54.564274  4.807874  25.000000  36.530398  -13.418394  -18.851417  40.135420  11.769570  -47.500896  16.250721  126.300253
0.251433  0.000000  0.000000  0.000000  -54.564274  4.807874  30.000000  35.454158  -16.358114  -23.037036  40.135420  11.769570  -47.500896  16.250721  126.300253
0.251513  0.000000  0.000000  0.000000  -54.564274  4.807874  35.000000  34.136162  -19.212747  -27.348759  40.135420  11.769570  -47.500896  16.250721  126.300253
0.251594  0.000000  0.000000  0.000000  -54.564274  4.807874  40.000000  32.566245  -21.963074  -31.809993  40.135420  11.769570  -47.500896  16.250721  126.300253
0.251675  0.000000  0.000000  0.000000  -54.564274  4.807874  45.000000  30.734077  -24.588272  -36.443226  40.135420  11.769570  -47.500896  16.250721  126.300253
0.251756  0.000000  0.000000  0.000000  -54.564274  4.807874  50.000000  28.630146  -27.065816  -41.269095  40.135420  11.769570  -47.500896  16.250721  126.300253
0.251836  0.000000  0.000000  0.000000  -40.554146  0.855610  -20.000000  36.228180  23.018468  14.177914  7.836586  15.382697  15.108367  6.109522  120.664855
0.251917  0.000000  0.000000  0.000000  -40.554146  0.855610  -15.000000  37.802882  20.006807  9.886965  7.836586  15.382697  15.108367  6.109522  120.664855
0.251998  0.000000  0.000000  0.000000  -40.554146  0.855610  -10.000000  39.110111  16.895786  5.759792  7.836586  15.382697  15.108367  6.109522  120.664855
0.252078  0.000000  0.000000  0.000000  -40.554146  0.855610  -5.000000  40.164200  13.704839  1.768261  7.836586  15.382697  15.108367  6.109522  120.664855
0.252159  0.000000  0.000000  0.000000  -40.554146  0.855610  0.000000  40.977437  10.451629  -2.115244  7.836586  15.382697  15.108367  6.109522  120.664855
0.252240  0.000000  0.000000  0.000000  -40.554146  0.855610  5.000000  41.559744  7.152451  -5.917648  7.836586  15.382697  15.108367  6.109522  120.664855
0.252321  0.000000  0.000000  0.000000  -40.554146  0.855610  10.000000  41.918387  3.822566  -9.665230  7.836586  15.382697  15.108367  6.109522  120.664855
0.252401  0.000000  0.000000  0.000000  -40.554146  0.855610  15.000000  42.057968  0.476506  -13.383736  7.836586  15.382697  15.108367  6.109522  120.664855
0.252482  0.000000  0.000000  0.000000  -40.554146  0.855610  20.000000  41.980271  -2.871562  -17.098623  7.836586  15.382697  15.108367  6.109522  120.664855
0.252563  0.000000  0.000000  0.000000  -40.554146  0.855610  25.000000  41.684294  -6.207510  -20.835326  7.836586  15.382697  15.108367  6.109522  120.664855
0.252643  0.000000  0.000000  0.000000  -40.554146  0.855610  30.000000  41.166253  -9.516938  -24.619486  7.836586  15.382697  15.108367  6.109522  120.664855
0.252724  0.000000  0.000000  0.000000  -40.554146  0.855610  35.000000  40.419619  -12.784833  -28.477206  7.836586  15.382697  15.108367  6.109522  120.664855
0.252805  0.000000  0.000000  0.000000  -40.554146  0.855610  40.000000  39.435214  -15.995242  -32.435224  7.836586  15.382697  15.108367  6.109522  120.664855
0.252886  0.000000  0.000000  0.000000  -40.554146  0.855610  45.000000  38.201386  -19.130894  -36.520949  7.836586  15.382697  15.108367  6.109522  120.664855
0.252966  0.000000  0.000000  0.000000  -40.554146  0.855610  50.000000  36.704327  -22.172908  -40.762427  7.836586  15.382697  15.108367  6.109522  120.664855
0.253047  0.000000  0.000000  0.000000  -31.495811  -7.053446  -20.000000  48.827052  14.375744  21.079045  0.632678  14.618296  8.219120  19.201490  115.357961
0.253128  0.000000  0.000000  0.000000  -31.495811  -7.053446  -15.000000  49.550963  10.590293  17.732681  0.632678  14.618296  8.219120  19.201490  115.357961
0.253208  0.000000  0.000000  0.000000  -31.495811  -7.053446  -10.000000  50.044014  6.770410  14.468425  0.632678  14.618296  8.219120  19.201490  115.357961
0.253289  0.000000  0.000000  0.000000  -31.495811  -7.053446  -5.000000  50.315856  2.929101  11.255622  0.632678  14.618296  8.219120  19.201490  115.357961
0.253370  0.000000  0.000000  0.000000  -31.495811  -7.053446  0.000000  50.371806  -0.921332  8.064831  0.632678  14.618296  8.219120  19.201490  115.357961
0.253451  0.000000  0.000000  0.000000  -31.495811  -7.053446  5.000000  50.212958  -4.768902  4.867146  0.632678  14.618296  8.219120  19.201490  115.357961
0.253531  0.000000  0.000000  0.000000  -31.495811  -7.053446  10.000000  49.836198  -8.601530  1.633456  0.632678  14.618296  8.219120  19.201490  115.357961
0.253612  0.000000  0.000000  0.000000  -31.495811  -7.053446  15.000000  49.234168  -12.406625  -1.666158  0.632678  14.618296  8.219120  19.201490  115.357961
0.253693  0.000000  0.000000  0.000000  -31.495811  -7.053446  20.000000  48.395075  -16.170674  -5.063174  0.632678  14.618296  8.219120  19.201490  115.357961
0.253774  0.000000  0.000000  0.000000  -31.495811  -7.053446  25.000000  47.302504  -19.878781  -8.591237  0.632678  14.618296  8.219120  19.201490  115.357961
0.253854  0.000000  0.000000  0.000000  -31.495811  -7.053446  30.000000  45.935208  -23.514135  -12.286790  0.632678  14.618296  8.219120  19.201490  115.357961
0.253935  0.000000  0.000000  0.000000  -31.495811  -7.053446  35.000000  44.266874  -27.057393  -16.189577  0.632678  14.618296  8.219120  19.201490  115.357961
0.254016  0.000000  0.000000  0.000000  -31.495811  -7.053446  40.000000  42.266263  -30.486037  -20.342824  0.632678  14.618296  8.219120  19.201490  115.357961
0.254096  0.000000  0.000000  0.000000  -31.495811  -7.053446  45.000000  39.897657  -33.773614  -24.792993  0.632678  14.618296  8.219120  19.201490  115.357961
0.254177  0.000000  0.000000  0.000000  -31.495811  -7.053446  50.000000  37.122209  -36.888988  -29.588651  0.632678  14.618296  8.219120  19.201490  115.357961
0.254258  0.000000  0.000000  0.000000  -45.901971  9.407791  -20.000000  37.711559  10.345859  22.931870  -15.158949  -7.217474  -21.158402  20.182543  125.059218
0.254339  0.000000  0.000000  0.000000  -45.901971  9.407791  -15.000000  38.322143  7.265136  18.946202  -15.158949  -7.217474  -21.158402  20.182543  125.059218
0.254419  0.000000  0.000000  0.000000  -45.901971  9.407791  -10.000000  38.713393  4.150119  15.015105  -15.158949  -7.217474  -21.158402  20.182543  125.059218
0.254500  0.000000  0.000000  0.000000  -45.901971  9.407791  -5.000000  38.889293  1.015800  11.115019  -15.158949  -7.217474  -21.158402  20.182543  125.059218
0.254581  0.000000  0.000000  0.000000  -45.901971  9.407791  0.000000  38.851648  -2.123220  7.222490  -15.158949  -7.217474  -21.158402  20.182543  125.059218
0.254661  0.000000  0.000000  0.000000  -45.901971  9.407791  5.000000  38.600074  -5.252399  3.314142  -15.158949  -7.217474  -21.158402  20.182543  125.059218
0.254742  0.000000  0.000000  0.000000  -45.901971  9.407791  10.000000  38.131976  -8.357057  -0.633509  -15.158949  -7.217474  -21.158402  20.182543  125.059218
0.254823  0.000000  0.000000  0.000000  -45.901971  9.407791  15.000000  37.442640  -11.421989  -4.644110  -15.158949  -7.217474  -21.158402  20.182543  125.059218
